<svg xmlns="http://www.w3.org/2000/svg" viewBox="0 0 512 512">
  <defs>
    <linearGradient id="bgGrad" x1="0%" y1="0%" x2="100%" y2="100%">
      <stop offset="0%" style="stop-color:#3498db"/>
      <stop offset="100%" style="stop-color:#2980b9"/>
    </linearGradient>
  </defs>
  
  <!-- 圆角背景 -->
  <rect x="32" y="32" width="448" height="448" rx="96" ry="96" fill="url(#bgGrad)"/>
  
  <!-- 工具箱主体 -->
  <rect x="96" y="160" width="320" height="240" rx="24" ry="24" fill="#ffffff" opacity="0.95"/>
  
  <!-- 工具箱把手 -->
  <rect x="192" y="120" width="128" height="48" rx="12" ry="12" fill="#ffffff" opacity="0.95"/>
  <rect x="224" y="120" width="64" height="24" rx="8" ry="8" fill="url(#bgGrad)"/>
  
  <!-- 工具图标 - 扳手 -->
  <g transform="translate(120, 200)">
    <path d="M40 0 L60 20 L40 40 L20 20 Z" fill="#2980b9" opacity="0.9"/>
    <rect x="10" y="35" width="40" height="12" rx="4" transform="rotate(-45, 30, 41)" fill="#2980b9" opacity="0.9"/>
  </g>
  
  <!-- 工具图标 - 齿轮 -->
  <g transform="translate(220, 195)">
    <circle cx="30" cy="30" r="20" fill="none" stroke="#2980b9" stroke-width="8"/>
    <circle cx="30" cy="30" r="8" fill="#2980b9"/>
    <rect x="26" y="0" width="8" height="12" fill="#2980b9"/>
    <rect x="26" y="48" width="8" height="12" fill="#2980b9"/>
    <rect x="0" y="26" width="12" height="8" fill="#2980b9"/>
    <rect x="48" y="26" width="12" height="8" fill="#2980b9"/>
  </g>
  
  <!-- 工具图标 - 计算器 -->
  <g transform="translate(320, 195)">
    <rect x="0" y="0" width="56" height="72" rx="8" fill="none" stroke="#2980b9" stroke-width="6"/>
    <rect x="8" y="8" width="40" height="16" rx="4" fill="#2980b9" opacity="0.3"/>
    <circle cx="16" cy="40" r="4" fill="#2980b9"/>
    <circle cx="28" cy="40" r="4" fill="#2980b9"/>
    <circle cx="40" cy="40" r="4" fill="#2980b9"/>
    <circle cx="16" cy="56" r="4" fill="#2980b9"/>
    <circle cx="28" cy="56" r="4" fill="#2980b9"/>
    <circle cx="40" cy="56" r="4" fill="#2980b9"/>
  </g>
  
  <!-- 底部装饰线 -->
  <rect x="120" y="370" width="272" height="6" rx="3" fill="#ffffff" opacity="0.5"/>
</svg>
